<svg id="Layer_1" data-name="Layer 1" xmlns="http://www.w3.org/2000/svg" xmlns:xlink="http://www.w3.org/1999/xlink" viewBox="0 0 355.13 138.88"><defs><style>.cls-1{fill:none;}.cls-2{clip-path:url(#clip-path);}.cls-3{fill:#4f2578;}.cls-4{fill:#ffde00;}</style><clipPath id="clip-path" transform="translate(0 0)"><rect class="cls-1" width="355.13" height="138.88"/></clipPath></defs><title>logo</title><g class="cls-2"><path class="cls-3" d="M305.16,24.69a4.15,4.15,0,0,1-1.46-3.1C303.8,18.74,313.08.46,322,0c4.11-.21,7.76,1.4,9.76,4.3,3,4.06,6.07,13.25,5.51,16.6A6.19,6.19,0,0,1,334.48,25c-2.92,2.06-8.14,3.08-10.47,3a4.1,4.1,0,0,1-.66-.07,2.87,2.87,0,0,1-2.24-3.35,41.62,41.62,0,0,0-1.26-9.18,80.27,80.27,0,0,0-6.37,10.19A3,3,0,0,1,311,27.35c-2.93.12-5.55-2.37-5.83-2.66M198.59,40.06h.51c6.35-.32,12.2-11.43,12.39-16.75a7.48,7.48,0,0,0-2.35-5.64,12.88,12.88,0,0,0-8.86-3.45c-6.22.31-9.26,7.53-9.5,14.54-.13,3.8.95,7,3,9.12a7.22,7.22,0,0,0,4.77,2.18m82.26,62.77-.67,0c-17.33-.61-73.9,1.9-98.92,3.31-26,1.47-54,4.43-61,5.76-7.36,1.38-6.69,6.56-6.59,7.14.56,3.28,4,5.77,8.19,5.92a11,11,0,0,0,2.19-.14c43.81-7.22,132.47-5.84,155-3a7.85,7.85,0,0,0,6.68-2.35c2.41-2.48,6.89-7.1,5.07-11.74s-7.92-4.76-9.95-4.84m72.94-34.45a8,8,0,0,1-8.49,3.29c-3.35-.65-7.51,2.36-10.76,5a47.18,47.18,0,0,0-4.78,4.81,47.68,47.68,0,0,1-6,5.85,26.52,26.52,0,0,1-15.1,6c-7.69.37-14-3-17.68-9.11-3.47,4.25-7.1,6.49-10.79,6.67-6,.3-10.86-2.35-13.54-7-2.91,6-7,11-13.33,11.33a14.43,14.43,0,0,1-10.1-4,17.48,17.48,0,0,1-3.67-4.83c-6.23,7.18-13.23,11-20.85,11.38-7.15.36-12.84-2.62-16.29-8.24-3.47,4.38-7.1,6.69-10.8,6.87a15.55,15.55,0,0,1-10.73-4,13.92,13.92,0,0,1-1.7-1.87c-4.87,6.08-10.28,9.31-16.11,9.6-7.77.38-13.51-4.43-15.83-13.05a59.43,59.43,0,0,1-11.45,4.38,2.89,2.89,0,0,1-.41.85c-4.55,6.53-10.19,10.14-16.31,10.45a17.91,17.91,0,0,1-10.29-2.67c-2.1,11.24-5.5,30.3-4.73,34.66a2.9,2.9,0,0,1-.61,2.33c-1.19,1.46-3.45,1.84-5.68,1.76a21.52,21.52,0,0,1-5.58-1c-4.2-1.42-6.69-4.17-6.83-7.55-.18-6.23,1.45-17.44,3.24-27.71a9.83,9.83,0,0,1-3.52.86c-6.58.34-13-3.35-18.43-10.63l-.14-.2L65,90.14C53.06,100.48,42,106,32.11,106.46a18.87,18.87,0,0,1-14.69-5.34c-4.55-4.53-7-11.62-6.73-19.45.05-1.46.18-3,.37-4.61,0-.07,0-.13,0-.2-5-3.68-9.83-9.17-10.92-17C-.64,54,1.36,49.13,5.53,46.8a8.77,8.77,0,0,1,9.9.55c2.34,2,3,5.21,1.85,8.63a13.79,13.79,0,0,0-.67,2.83,47,47,0,0,1,7.13-10.44C28.62,43,36.93,38.71,44.55,41c6.84,2.09,9.05,9.32,8.84,15.39-.37,10.52-6.4,22-14,26.7a14.11,14.11,0,0,1-9.46,2.22A9.4,9.4,0,0,0,32.19,91a4.54,4.54,0,0,0,3.63,1.32c3.7-.19,10.6-2.92,22.7-14.67-3.13-7.9-6.25-19.14-4.74-22.47a2.81,2.81,0,0,1,.27-.48c3-4.21,12.09-6.48,16.23-5.68A2.87,2.87,0,0,1,72.61,52a38.3,38.3,0,0,0,1.23,9C83.7,49.22,91.05,38.65,92.49,36.43a2.86,2.86,0,0,1,2.82-1.27c1.3.2,2.63,1.23,3.95,3.07.93,1.3,2.44,3.84,2.05,6.24-.63,3.19-10.22,18.13-22.5,31.9l1,2.55c3,7,5.16,9.76,6.06,10.5.68-.49,3.25-2.82,8-13.12,8-36.76,10-36.86,12.22-37,3.36-.16,12.24,1.24,14.9,4.55,2.68-3,5.45-4.57,8.41-4.72,6.8-.34,14.62,4.84,15.69,17,.51,7-.84,16-3.55,23.83,1.43-.79,2.94-1.71,4.51-2.79a101.17,101.17,0,0,1,1-15A169.88,169.88,0,0,1,154.87,28c3.06-8.89,7.66-22.21,19.16-24.95a10.89,10.89,0,0,1,13.23,7.28,28.63,28.63,0,0,1,.74,9.16c-.54,11.34-12.12,43.76-24.53,56a2.89,2.89,0,0,1,.09.8c-.15,7.32,1.19,9.21,1.6,9.62a.73.73,0,0,0,.65.22c1,0,4.73-1.15,10.93-13,1.19-12,4.23-31.48,11.38-31.83,2-.1,6.26.83,9.52,2.08a6.08,6.08,0,0,1,3.44,7.79c-2.44,7-6.31,22.33-6.56,29.54,0,.25,0,.47,0,.67a34.78,34.78,0,0,0,4.21-6.67q0-.85,0-1.71a54.35,54.35,0,0,1,2.4-13.79c3-10,7.35-17.26,12.84-21.59,7-5.52,16-6.32,22.34-2a11.47,11.47,0,0,1,1.84,1.57,7.89,7.89,0,0,1,4.45,0,7.33,7.33,0,0,1,4.8,3.48,5.28,5.28,0,0,1,.42,1c3.76-5.21,8.4-9.13,13.77-10.63,9.31-2.61,16.23,1.12,19.61,5.47a11.76,11.76,0,0,1,2.34,10.53,13.8,13.8,0,0,1,3.26,3,7.37,7.37,0,0,1,1,7c-3,8.45-4.35,15.38-4.49,18.78a31.2,31.2,0,0,0,4-6c0-.4,0-.81,0-1.22.43-12.38,5.31-24.82,13.06-33.3,4.86-5.33,13.18-9.66,20.8-7.33,6.84,2.09,9,9.32,8.84,15.39-.37,10.52-6.4,22-14,26.7a14.15,14.15,0,0,1-9.45,2.22,9.4,9.4,0,0,0,2.3,5.7,4.52,4.52,0,0,0,3.62,1.31c5.73-.28,9.29-5.08,13.41-10.64s8.65-11.66,16.13-13.17,10.71,2.06,11.78,3.66a8.52,8.52,0,0,1,.07,9.28M237.42,70.24a65,65,0,0,1,2.1-10.83,36.69,36.69,0,0,1-3.3,4c-2.81,3.47-6.22,5.54-9.38,5.7a7.9,7.9,0,0,1-2-.16,4.66,4.66,0,0,1-3.46-3.11,5,5,0,0,1,.93-4.8,23.59,23.59,0,0,0,4.2-10.5c-3.86,5.06-8.28,15.36-8.59,24.24-.13,3.84.54,6.79,1.84,8.09a3.24,3.24,0,0,0,2.72.86c4.4-.22,9.84-5.12,15-13.48m18.5,8.88c2.26-3.35,6.45-12,12.64-30-.47-3.24-1.11-4.22-1.32-4.48-.63.13-2,1.17-3.85,4.42-5,8.92-7.74,24.05-7.47,30.06M308,60.57a8.9,8.9,0,0,0,1.81-1.6c2.86-3.24,4.44-8.53,4.67-12.28A46,46,0,0,0,308,60.57M126.93,54.39c-1.66,2.18-4.82,7.46-10.41,20.2l-3.08,7.52-1.12,2.46c.52,3.1,1.75,4.72,2.65,4.66,2.5-.12,4.74-5.74,5.82-8.44l.44-1.09a80.61,80.61,0,0,0,4.26-14.44l.06-.28a51.61,51.61,0,0,0,1.39-10.58M31.43,73.68A8.82,8.82,0,0,0,33.37,72c2.83-3.31,4.35-8.48,4.56-12.16a45.67,45.67,0,0,0-6.5,13.9" transform="translate(0 0)"/><path class="cls-4" d="M307.76,20.29c.07-2,9-18.46,15.72-18.79,2.73-.13,5.71.72,7.35,3.07,2.88,3.86,5.45,12.32,5.09,14.48-.56,3.6-9.49,4.9-10.64,4.67.36-1.88-1.22-14.24-3.38-14.13s-9.32,12.33-9.8,13.49c-1.72.08-4.37-2.07-4.35-2.79m39.66,47.16c-4.71-.9-9.63,2.69-13.23,5.64-3.91,3.21-6.76,7.51-10.77,10.6a24.23,24.23,0,0,1-13.62,5.37c-10.57.52-16.64-6.82-18.2-15.93-.07.79-.12,1.58-.14,2.37a29.26,29.26,0,0,0,.08,3.29c-3,4.36-6.61,7.63-10.47,7.82-7.76.38-12.45-5-12.92-12.09a2.36,2.36,0,0,1-.11-1C264.85,83,260.72,90.62,254,90.95c-4.89.24-12.34-4-13.26-14.65,0-.62-.07-1.26-.08-1.91a43.81,43.81,0,0,0-.75,6.51c-5.14,6.61-12,12.19-20.85,12.63-10.45.51-15.55-6.69-16.85-15.67-.14,1.17-.26,2.33-.3,3.5s0,2.05,0,3.07c-3,4.34-6.47,7.55-10.23,7.73-4.17.21-12.1-2.7-12.5-11.69,0-.57,0-1.31,0-2.15-.33,1.49-.57,2.77-.69,3.71a17.28,17.28,0,0,0-.1,3.52c-4,5.6-9.21,10-15.52,10.31-7.33.36-12.31-4.83-13.71-14.06,0-.17,0-.34-.06-.51a56.11,56.11,0,0,1-22.2,7.41,46.28,46.28,0,0,0,5.82.54c-3.48,4.95-8.2,8.93-14.25,9.22a15.18,15.18,0,0,1-12.16-5.12c-2.46,12.85-6.64,35.1-5.68,40.49-1.35,1.64-12.93.64-13.16-5.07-.19-6.6,1.85-20.17,4.63-34.72-2.42,3-5.09,5-7.92,5.11-6.32.31-11.78-3.71-16.16-9.5l-2.12-3.35,4-7C58,91.13,44,101.45,30.71,102.1c-12.79.63-19-10.22-18.6-21.83,0-1.44.17-2.9.35-4.36A50.47,50.47,0,0,0,19,77.37C13,74.75,3,68.83,1.46,58c-2-14,15-13.81,11.7-4.43a14.42,14.42,0,0,0,1.4,12.92,46.85,46.85,0,0,1,10-17.63c4.46-4.84,11.83-8.4,18-6.52,5.27,1.6,7.06,7.41,6.89,12.54C49,68.17,37.6,85.6,25.74,80l-.07,1.86c-.21,6,2.73,12.16,9.05,11.85,7.22-.35,16.79-7.59,26.17-16.83-4.34-10.11-6.35-20.28-5.58-22,2.11-3,9.93-5.21,13.5-4.52-.12,3.58,1,9.21,2.74,15.13a319.31,319.31,0,0,0,22.6-29c1.12.17,4,4,3.66,6-.44,2.19-9.92,17.29-23.19,31.75l1.67,4.22c3,7.14,6.44,12.55,8.74,12.44,3.19-.16,7.48-7.91,10.82-15.19,4.12-18.78,8.47-35,9.71-35,4.17-.21,11.84,1.85,12.78,3.66-1.35,1.78-3.31,8.6-6,19-.15.29,0,.43.12.71,4.44-12.23,10-23.23,16.6-23.55,5.6-.28,11.9,4,12.84,14.39.49,6.56-.85,15.92-4,24.22a52,52,0,0,1-2.31,5.12,57.94,57.94,0,0,0,13.1-7.1,91.7,91.7,0,0,1,.89-16.08,165.93,165.93,0,0,1,7.8-33.64c3-8.57,7.17-20.71,17.27-23.08,4.39-1,8.68,1.17,9.94,5.32a26,26,0,0,1,.63,8.22c-.54,11.47-12.57,43.81-24.57,54.69a64.41,64.41,0,0,1-6.75,5.54,56.45,56.45,0,0,0,6.68-3.4c-.15,7.73,1.2,13,5.29,12.77,4.84-.24,9.9-7.76,13.69-15.07,1.12-11.55,4.38-29.58,8.8-29.79a28.66,28.66,0,0,1,8.45,1.9,3.19,3.19,0,0,1,1.78,4.15c-2.39,6.78-6.5,22.68-6.77,30.39-.12,3.44.55,4.84,1.84,4.77,2.4-.12,5.44-4.7,8.16-10,0-.76,0-1.52,0-2.29a51,51,0,0,1,2.3-13.05c2.18-7.12,5.8-15.34,12-20.16,5.74-4.48,13.43-5.74,19.17-1.88a10.29,10.29,0,0,1,2.79,3,2.34,2.34,0,0,1,.62-.61,4.76,4.76,0,0,1,3.81-.41,4.61,4.61,0,0,1,3.06,2.1,2.47,2.47,0,0,1,.3,1,3.27,3.27,0,0,1-.23,1.29,11.76,11.76,0,0,1-.65,1.48l-1,1.87-4.53,7.64a41.71,41.71,0,0,1-4.84,6.17c-2.33,2.89-5.06,4.63-7.46,4.75a5.17,5.17,0,0,1-1.33-.1,2,2,0,0,1-1-3.23,25.68,25.68,0,0,0,5-13.54,15.56,15.56,0,0,0-.33-3.49.89.89,0,0,0-1.36-.55c-5.41,3.24-12.42,17.7-12.83,29.35-.21,6,1.29,12.23,7.62,11.92,6.62-.33,13-7.56,17.77-15.41,1.36-14.51,9.6-33.92,22.37-37.47,13.2-3.66,21.84,7.08,18,13.85l-.45.59a12.41,12.41,0,0,1,4.85,3.57,4.48,4.48,0,0,1,.52,4.28c-3.88,10.89-6.55,24-3,23.78,2.48-.12,5.47-4.36,8.13-9.3,0-.61,0-1.21,0-1.83.39-11,4.55-22.92,12.4-31.44,4.46-4.84,11.83-8.4,18-6.52,5.27,1.6,7.06,7.41,6.89,12.54C328.07,55.14,316.7,72.57,304.85,67l-2.55-1.32L304.78,69c-.17,6,2.77,12.07,9.05,11.76,13.75-.68,16.79-21.17,30.22-23.85,12.92-2.58,12.2,12.28,3.37,10.58m-42-4.63c9.49,1.31,14.63-14.8,13-21.24a1.56,1.56,0,0,0-2.66-.62c-4.14,4-8.62,13-10.31,21.85M161.54,64.45c8.68-14.3,17-44.45,16.12-50.84-3.45.17-13.07,29.24-16.12,50.84M26.32,75.86c9.6,1.33,14.74-15.17,12.92-21.46a1.49,1.49,0,0,0-2.46-.53c-4.18,3.88-8.74,13-10.46,22M127.39,48.68c-3.16.15-9,12-14,23.28l-3.13,7.59-1.44,3.13,0,.23c.68,5.12,3,7.86,5.76,7.73,4.67-.23,7.2-7.32,8.71-11l.12-.28a83,83,0,0,0,4.46-15c.38-1.84,3.47-15.89-.49-15.69m145-.68c-.67-5.26-2-7.77-4.32-7.65-9.62.47-18.25,42.08-12.22,41.79,4.46-.22,13-24,16.54-34.13M199.2,35.75c4.26-.21,9.6-9.39,9.76-14,.14-4-5.35-6.26-8.3-6.12-4.7.23-6.68,7-6.85,11.76-.21,5.88,3,8.45,5.38,8.33m90,71.58c-.74-1.86-3.18-2.85-7.48-3l-.65,0c-17.4-.61-74.07,1.86-99.56,3.27-26.12,1.45-54.15,4.39-61.22,5.69-4.5.83-4.46,3.13-4.34,3.82.31,1.79,2.61,3.44,5.54,3.54a8.42,8.42,0,0,0,1.64-.11c44.47-7.25,134.39-5.82,157.26-3a5.12,5.12,0,0,0,4.32-1.5c2-2,5.65-5.77,4.5-8.67" transform="translate(0 0)"/></g></svg>